<svg focusable="false" xmlns="http://www.w3.org/2000/svg" xmlns:xlink="http://www.w3.org/1999/xlink" viewBox="0 0 458.042 154.524">
	<title>xfinity official logo, comcast official logo</title>
	<path fill="#FFFFFF" d="M51.192,78.052L79.948,39.5H67.94c-5.372,0-8.848,1.896-11.692,5.688 L41.08,65.57L26.386,45.188c-2.844-3.792-6.32-5.688-11.692-5.688H2.686l28.44,38.553L0,120.08h11.376 c5.372,0,8.848-1.896,11.692-5.688L41.08,90.534l42.186,58.302c2.686,3.792,6.32,5.688,11.692,5.688h12.324L51.192,78.052z M281.398,120.08h16.273V39.5h-16.273V120.08z M152.312,120.08h16.274V39.5h-16.274V120.08z M399.108,148.52L458.041,39.5h-8.847 c-5.372,0-9.481,1.58-11.693,5.688l-23.225,43.134l-20.067-43.134c-2.053-4.266-6.318-5.688-11.69-5.688h-8.532l30.968,65.729 l-27.018,49.296h8.848C392.314,154.524,396.738,152.786,399.108,148.52 M188.02,39.5v80.58h16.274v-55.3 c5.056-7.11,12.324-11.534,21.33-11.534c12.008,0,20.225,7.584,20.225,22.752v36.341c0,4.581,3.159,7.741,7.584,7.741h8.689V73.154 c0-20.856-13.271-35.392-32.548-35.392c-10.27,0-18.802,3.634-25.28,9.638v-7.9H188.02z M327.851,91.482 c0,17.538,10.743,30.02,30.02,30.02c4.74,0,8.69-0.632,11.85-1.579l-3.317-14.221c-2.054,0.475-4.582,0.79-7.426,0.79 c-7.9,0-14.854-4.266-14.854-15.326v-37.13h22.752L360.24,39.5h-16.117V7.11l-16.272,7.11V39.5h-17.224v14.536h17.224V91.482z M102.226,54.036v66.044H118.5V54.036h20.856V39.5H118.5v-6.004c0-13.746,8.216-18.328,16.274-18.328c2.054,0,3.95,0.316,5.53,0.79 l3.318-14.378C141.568,0.79,138.25,0,133.51,0c-20.224,0-31.284,15.01-31.284,33.18v6.32h-8.532l-10.27,14.536H102.226z"/>
</svg>
